<svg width="390" height="331" viewBox="0 0 390 331" fill="none" xmlns="http://www.w3.org/2000/svg">
<ellipse cx="83.9955" cy="308.237" rx="15.9475" ry="15.9363" transform="rotate(-9.30729 83.9955 308.237)" fill="#00C1D5"/>
<path d="M84.9311 213.718L85.4307 207.691C85.4402 207.576 85.4693 207.465 85.5166 207.36L87.862 202.19C88.0001 201.885 88.2811 201.67 88.611 201.616L100.475 199.672C101.208 199.552 101.841 200.254 101.737 200.99C101.272 204.295 101.519 210.584 105.035 218.23C105.152 218.485 105.371 218.674 105.633 218.773C117.396 223.216 125.178 260.288 127.7 278.992C127.746 279.335 127.963 279.616 128.274 279.767C134.069 282.575 141.978 289.568 130.636 297.005C119 304.635 76.3299 303.566 56.2473 302.067C56.1121 302.057 55.9901 302.021 55.87 301.958C47.9789 297.819 33.8107 288.808 38.9094 285.123C45.3311 280.482 55.9139 246.45 62.0796 229.29C66.715 216.39 77.855 214.15 83.7717 214.663C84.3519 214.714 84.883 214.299 84.9311 213.718Z" fill="#29215B"/>
<path d="M185.224 49.4138C130.438 56.957 108.501 88.9026 104.38 103.932C97.3857 105.079 71.0176 261.918 216.153 238.132C354.819 215.406 359.265 70.5337 344.981 5.28852C339.64 5.56578 323.356 9.19153 300.949 21.4764C272.941 36.8325 253.706 39.9848 185.224 49.4138Z" fill="#00C1D5"/>
<path d="M82.3723 209.896L121.424 205.154C122.083 205.074 122.482 204.386 122.225 203.774L105.911 164.988C105.583 164.208 104.495 164.163 104.103 164.913L81.3654 208.44C80.9926 209.154 81.573 209.993 82.3723 209.896Z" fill="#29215B"/>
<path d="M266.216 149.183C190.301 211.865 167.666 146.792 165.838 106.421C165.762 98.6577 171.443 81.4583 194.765 74.765C218.088 68.0718 242.27 32.2894 251.446 15.2349C276.926 35.5814 315.552 90.8562 266.216 149.183Z" fill="#29225C"/>
<ellipse cx="137.166" cy="150.595" rx="19.4913" ry="17.707" transform="rotate(-9.30729 137.166 150.595)" fill="white"/>
<ellipse cx="133.668" cy="151.168" rx="12.4036" ry="10.6242" transform="rotate(-9.30729 133.668 151.168)" fill="#29225C"/>
<rect x="133.699" y="140.397" width="3.54388" height="7.0828" transform="rotate(-9.30729 133.699 140.397)" fill="white"/>
</svg>
