<svg width="179" height="310" viewBox="0 0 179 310" fill="none" xmlns="http://www.w3.org/2000/svg">
<g clip-path="url(#clip0_1545_10871)">
<path d="M167.523 100.389C167.523 134.409 111.828 190.986 91.3516 190.986C74.3291 190.986 15.126 137.176 15.126 100.376C15.126 50.3317 49.2528 9.75134 91.3516 9.75134C133.45 9.75134 167.577 50.3317 167.577 100.376" fill="#00C1D5"/>
<path d="M97.1806 61.7127C97.1138 64.6301 97.911 67.5019 99.4713 69.9646C101.032 72.4274 103.285 74.3703 105.946 75.5478C108.608 76.7253 111.557 77.0844 114.422 76.5795C117.287 76.0746 119.938 74.7286 122.04 72.7116C124.142 70.6947 125.6 68.0975 126.231 65.2487C126.861 62.3999 126.635 59.4276 125.582 56.7076C124.528 53.9877 122.694 51.6425 120.311 49.9687C117.928 48.295 115.104 47.368 112.196 47.3049C110.267 47.2612 108.349 47.5993 106.55 48.2998C104.751 49.0003 103.108 50.0496 101.713 51.3876C100.319 52.7256 99.2008 54.3261 98.4231 56.0978C97.6454 57.8694 97.2232 59.7773 97.1806 61.7127Z" fill="white"/>
<path d="M105.999 62.014C105.956 63.8857 106.467 65.728 107.468 67.3079C108.469 68.8878 109.915 70.1343 111.622 70.8898C113.33 71.6453 115.222 71.8757 117.06 71.552C118.898 71.2283 120.599 70.3649 121.947 69.0712C123.296 67.7774 124.232 66.1114 124.637 64.2839C125.042 62.4563 124.897 60.5494 124.221 58.8043C123.546 57.0592 122.369 55.5544 120.841 54.4801C119.313 53.4059 117.501 52.8106 115.636 52.7694C114.398 52.7403 113.166 52.9565 112.011 53.4056C110.857 53.8546 109.801 54.5277 108.906 55.3864C108.011 56.245 107.294 57.2725 106.795 58.4097C106.296 59.547 106.025 60.7718 105.999 62.014Z" fill="#29235C"/>
<path d="M56.0371 61.7127C55.9703 64.6301 56.7674 67.5019 58.3278 69.9646C59.8881 72.4274 62.1415 74.3703 64.8028 75.5478C67.4641 76.7253 70.4137 77.0844 73.2785 76.5795C76.1432 76.0746 78.7943 74.7286 80.8964 72.7116C82.9984 70.6947 84.4569 68.0975 85.0873 65.2487C85.7178 62.3999 85.4918 59.4276 84.438 56.7076C83.3842 53.9877 81.55 51.6425 79.1673 49.9687C76.7847 48.295 73.9608 47.368 71.0529 47.3049C69.1239 47.2612 67.2052 47.5993 65.4065 48.2998C63.6077 49.0003 61.9642 50.0496 60.5698 51.3876C59.1753 52.7256 58.0573 54.3261 57.2796 56.0978C56.5018 57.8694 56.0796 59.7773 56.0371 61.7127Z" fill="white"/>
<path d="M64.856 62.014C64.8132 63.8857 65.3247 65.728 66.3258 67.3079C67.3268 68.8878 68.7724 70.1343 70.4797 70.8898C72.187 71.6453 74.0793 71.8757 75.9172 71.552C77.7551 71.2283 79.456 70.3649 80.8047 69.0712C82.1534 67.7774 83.0894 66.1114 83.4942 64.2839C83.899 62.4563 83.7544 60.5494 83.0788 58.8043C82.4032 57.0592 81.2268 55.5544 79.6986 54.4801C78.1704 53.4059 76.3589 52.8106 74.4934 52.7694C73.2553 52.7403 72.0236 52.9565 70.8688 53.4056C69.7141 53.8546 68.6589 54.5277 67.7637 55.3864C66.8686 56.245 66.151 57.2725 65.652 58.4097C65.1531 59.547 64.8826 60.7718 64.856 62.014Z" fill="#29235C"/>
<path d="M93.5084 119.769L106.367 94.4865C106.639 93.9429 106.768 93.3387 106.742 92.7311C106.716 92.1235 106.536 91.5326 106.219 91.0143C105.902 90.4959 105.458 90.0674 104.93 89.7691C104.402 89.4708 103.807 89.3126 103.2 89.3096H79.4754C78.8678 89.3088 78.2702 89.4645 77.7398 89.7619C77.2094 90.0592 76.764 90.4882 76.4462 91.0077C76.1284 91.5273 75.9488 92.12 75.9247 92.7291C75.9006 93.3383 76.0327 93.9433 76.3085 94.4865L89.0992 119.769C89.3054 120.178 89.6207 120.521 90.0099 120.761C90.399 121.001 90.8469 121.128 91.3038 121.128C91.7606 121.128 92.2085 121.001 92.5977 120.761C92.9869 120.521 93.3021 120.178 93.5084 119.769Z" fill="#29235C"/>
<path d="M20.5186 66.698C20.5186 66.698 41.527 0 100.621 0C112.907 0 122.885 9.51852 122.885 9.51852C122.885 9.51852 110.354 6.28635 110.695 12.9561" fill="#00C1D5"/>
<path d="M163.892 72.6692C159.797 72.6692 150.241 86.2964 147.702 107.922C145.545 126.48 147.934 158.596 152.657 161.773C157.381 164.951 172.001 136.108 172.001 105.963C172.001 84.3242 168.015 72.6692 163.892 72.6692Z" fill="#29235C"/>
<path d="M20.1085 72.6692C24.2037 72.6692 31.2748 86.2964 36.2983 107.922C40.5436 126.11 36.0662 158.596 31.3431 161.773C26.6199 164.951 12 136.108 12 105.963C12 84.3242 15.986 72.6692 20.1085 72.6692Z" fill="#29235C"/>
<path d="M73.1551 172.456H61.6202C60.3024 172.456 59.0386 171.931 58.1067 170.996C57.1749 170.061 56.6514 168.793 56.6514 167.471C56.6514 166.149 57.1749 164.881 58.1067 163.946C59.0386 163.011 60.3024 162.486 61.6202 162.486H73.1551C73.8076 162.486 74.4537 162.615 75.0566 162.865C75.6594 163.116 76.2072 163.483 76.6686 163.946C77.13 164.409 77.496 164.958 77.7457 165.563C77.9954 166.168 78.1239 166.816 78.1239 167.471C78.1239 168.126 77.9954 168.774 77.7457 169.379C77.496 169.983 77.13 170.533 76.6686 170.996C76.2072 171.459 75.6594 171.826 75.0566 172.077C74.4537 172.327 73.8076 172.456 73.1551 172.456Z" fill="#29235C"/>
<path d="M118.995 172.456H107.474C106.821 172.456 106.175 172.327 105.572 172.077C104.969 171.826 104.422 171.459 103.96 170.996C103.499 170.533 103.133 169.983 102.883 169.379C102.633 168.774 102.505 168.126 102.505 167.471C102.505 166.816 102.633 166.168 102.883 165.563C103.133 164.958 103.499 164.409 103.96 163.946C104.422 163.483 104.969 163.116 105.572 162.865C106.175 162.615 106.821 162.486 107.474 162.486H118.995C119.647 162.486 120.294 162.615 120.896 162.865C121.499 163.116 122.047 163.483 122.508 163.946C122.97 164.409 123.336 164.958 123.586 165.563C123.835 166.168 123.964 166.816 123.964 167.471C123.964 168.126 123.835 168.774 123.586 169.379C123.336 169.983 122.97 170.533 122.508 170.996C122.047 171.459 121.499 171.826 120.896 172.077C120.294 172.327 119.647 172.456 118.995 172.456Z" fill="#29235C"/>
</g>
<path d="M13.3043 172.926L75.4836 243.624C77.231 245.617 79.3828 247.213 81.7952 248.307C84.2075 249.401 86.8249 249.967 89.4728 249.967C92.1208 249.967 94.7382 249.401 97.1505 248.307C99.5628 247.213 101.715 245.617 103.462 243.624L164.579 174.142C165.08 173.602 165.66 173.14 166.299 172.774C163.634 171.608 160.758 171.004 157.85 171H21.2475C18.4697 171.009 15.72 171.56 13.1523 172.622L13.3043 172.926Z" fill="#426DA9"/>
<path d="M175.711 181.187C175.443 181.925 175.05 182.61 174.548 183.214L113.431 252.695C110.431 256.086 106.746 258.801 102.621 260.661C98.4957 262.52 94.0237 263.482 89.5001 263.482C84.9764 263.482 80.5044 262.52 76.3792 260.661C72.254 258.801 68.5696 256.086 65.5694 252.695L3.3391 181.997L3.03555 181.541C1.04685 184.826 -0.00306367 188.595 6.06879e-05 192.437V288.12C-0.00659357 290.9 0.53403 293.653 1.5913 296.223C2.64857 298.793 4.20177 301.129 6.16152 303.096C8.12127 305.064 10.4492 306.625 13.0122 307.69C15.5752 308.756 18.3227 309.304 21.0975 309.304H157.7C163.309 309.304 168.688 307.072 172.654 303.099C176.62 299.127 178.848 293.738 178.848 288.12V192.184C178.85 188.296 177.763 184.486 175.711 181.187Z" fill="#426DA9"/>
<defs>
<clipPath id="clip0_1545_10871">
<rect width="160" height="191" fill="white" transform="translate(12)"/>
</clipPath>
</defs>
</svg>
