<svg version="1.2" xmlns="http://www.w3.org/2000/svg" viewBox="0 0 640 480" width="640" height="480">
	<title>New Project</title>
	<style>
		.s0 { fill: #29235c } 
		.s1 { fill: #00c1d5 } 
		.s2 { fill: #ffffff } 
	</style>
	<g id="&lt;Group&gt;">
		<g id="&lt;Group&gt;">
			<g id="&lt;Group&gt;">
				<path id="&lt;Path&gt;" class="s0" d="m243.2 260.1l-35.6-56.4c-1.1-1.8-3.1-3-5.2-3.1-2.2-0.2-4.3 0.7-5.7 2.4l-46.3 55.8c-1.7 2-2 4.8-0.9 7.2 1.1 2.3 3.5 3.9 6.1 3.9l81.8 0.6c2.5 0 4.8-1.3 6-3.5 1.2-2.2 1.1-4.8-0.2-6.9z"/>
			</g>
			<path id="&lt;Path&gt;" class="s1" d="m136.8 381.5c11.2 0 19 7.3 19 18.5 0 11.1-7.8 18.3-19 18.3-11.6 0-19.1-7.2-19.1-18.3 0-11.2 7.5-18.5 19.1-18.5z"/>
			<path id="&lt;Path&gt;" class="s1" d="m519.6 61.1q-1.3-0.1-2.5 0.4c-30.9 11.3-67 19.1-104.4 22.6-21.3 2-42.5 2.6-62.8 1.7-4.7-0.3-9.8-0.9-15-1.7-2.7-0.6-5.4-1.1-7.8-1.4q-0.4-0.1-0.8-0.1c-6.9-1-13.9-1.4-20.9-1.2-2.7 0-7.6 0.4-7.5 0.4l-0.9 0.1c-66.2 6.4-116 65.6-111 131.9v0.8q0.1 0.8 0.1 1.6 0.1 0.8 0.2 1.6l0.1 0.8c7.3 64.4 64.6 111.2 133.4 108.9 0.1-0.1 0.5-0.1 0.7-0.1h0.1q10.4 0.1 20.6-0.8c48-4.6 92.6-27.1 127.5-64.8 46.1-49.9 69.7-120.6 63.3-189.2-0.6-6.4-5.9-11.3-12.4-11.5z"/>
			<g id="&lt;Group&gt;">
				<path id="&lt;Path&gt;" class="s0" d="m421.4 63.7c-1.9-2.8-5.6-3.7-8.6-2.2q-0.6 0.3-1 0.8c-12 13.7-27.4 27.1-44.6 38.8-9.7 6.6-19.9 12.5-30 17.5-2.4 1.2-5 2.3-7.6 3.2-1.5 0.4-2.9 0.9-4.2 1.4q-0.2 0.1-0.4 0.2c-3.6 1.3-7.1 3-10.4 4.9v0.1c-1 0.5-2.7 1.6-3.5 2.1l-0.4 0.3c-30.2 20.6-38.5 62.3-18.6 92.9l1.5 2.2c14.4 20.3 38.5 30.4 61.9 28.1 11-1 21.8-4.7 31.4-11.2 0.1 0 0.3-0.2 0.3-0.2 58.8-39.9 74.1-120.2 34.2-178.9z"/>
			</g>
			<path id="&lt;Path&gt;" class="s2" d="m264 205.7c1.2 12.3-7.8 23.2-20.1 24.3-12.2 1.2-23.1-7.8-24.3-20.1-1.1-12.2 7.9-23.1 20.1-24.3 12.3-1.1 23.2 7.9 24.3 20.1z"/>
			<g id="&lt;Group&gt;">
				<path id="&lt;Path&gt;" class="s0" d="m250.7 207.1c0.7 7.9-5 14.9-12.9 15.6-7.9 0.8-14.8-5-15.6-12.9-0.7-7.8 5.1-14.8 12.9-15.6 7.9-0.7 14.9 5.1 15.6 12.9z"/>
			</g>
		</g>
	</g>
	<g id="&lt;Group&gt;">
		<path id="&lt;Compound Path&gt;" class="s0" d="m208.1 383.2h0.1c-8.3-23.2-9.5-40.6-8.6-59.8 0.5-38.1-32.7-44.5-32.8-44.6-0.4 0-33.3-7.3-48.1 27.8v0.1c-6.4 16.8-15.9 31.3-33.4 51h0.1c-1.6 1.7-2.3 3.5-2.6 4.8-2.9 14.3 28.4 27.8 58.7 34.2 19.3 4 36.8 5.1 49.1 3.4 5.6-0.8 10.1-2.2 13.1-4.3 3.5-2.2 4.7-4.9 5-6.8 0.4-2 0.2-3.9-0.6-5.8z"/>
		<path id="&lt;Path&gt;" class="s0" d="m183.3 281.8c0.7 7.7-4.9 14.4-12.5 15.1-7.7 0.7-14.5-4.9-15.2-12.5-0.7-7.7 5-14.4 12.6-15.1 7.6-0.8 14.4 4.9 15.1 12.5z"/>
	</g>
	<g id="Layer 1">
	</g>
</svg>