<svg width="479" height="187" viewBox="0 0 479 187" fill="none" xmlns="http://www.w3.org/2000/svg">
<g clip-path="url(#clip0_262_1549)">
<rect width="479" height="187" fill="#F2F7FB"/>
<g filter="url(#filter0_d_262_1549)">
<path d="M479 250.915C479.004 262.576 476.721 274.125 472.282 284.9C467.842 295.675 461.332 305.466 453.124 313.714C444.917 321.962 435.172 328.504 424.446 332.968C413.72 337.432 402.224 339.729 390.615 339.729H136.46C112.985 339.731 90.2663 331.391 72.3237 316.186C54.381 300.981 42.3713 279.89 38.4195 256.647C34.4677 233.403 38.8287 209.504 50.7307 189.18C62.6328 168.855 81.3086 153.414 103.454 145.59C103.454 143.709 103.32 141.845 103.32 139.963C103.325 115.524 111.36 91.7699 126.179 72.3868C140.998 53.0038 161.772 39.0759 185.277 32.7646C208.782 26.4534 233.704 28.1117 256.174 37.4822C278.645 46.8527 297.409 63.4114 309.553 84.5886C319.525 77.8701 331.127 74.0002 343.119 73.3929C355.112 72.7855 367.043 75.4635 377.637 81.1405C388.231 86.8176 397.09 95.2801 403.266 105.623C409.443 115.967 412.704 127.801 412.703 139.863C412.702 148.067 411.206 156.201 408.288 163.863C428.251 167.952 446.193 178.844 459.079 194.695C471.965 210.546 479.002 230.383 479 250.847" fill="#BED9EB"/>
</g>
<g filter="url(#filter1_d_262_1549)">
<path d="M238.993 166.386C237.607 162.804 236.88 158.999 236.849 155.156C236.852 149.514 238.378 143.979 241.266 139.141C244.154 134.304 248.294 130.346 253.245 127.69C258.195 125.034 263.77 123.78 269.375 124.061C274.979 124.343 280.402 126.15 285.065 129.289C290.733 119.363 299.504 111.596 310.014 107.197C320.523 102.798 332.184 102.012 343.184 104.961C354.184 107.91 363.907 114.43 370.843 123.507C377.779 132.584 381.539 143.709 381.539 155.156C381.539 156.039 381.539 156.902 381.539 157.785C391.881 161.46 400.599 168.691 406.154 178.202C411.709 187.712 413.742 198.89 411.896 209.762C410.049 220.634 404.441 230.5 396.062 237.618C387.683 244.736 377.072 248.648 366.103 248.663H247.268C237.025 248.664 227.147 244.841 219.548 237.935C211.949 231.029 207.171 221.532 206.141 211.286C205.11 201.039 207.9 190.773 213.97 182.477C220.04 174.181 228.957 168.447 238.993 166.386Z" fill="white"/>
</g>
<g filter="url(#filter2_d_262_1549)">
<path d="M328.197 140.576C331.212 140.576 333.298 142.489 333.298 145.476C333.298 148.463 331.212 150.301 328.197 150.301C325.181 150.301 323.096 148.389 323.096 145.476C323.096 142.563 325.106 140.576 328.197 140.576Z" fill="#00B1C4"/>
<path d="M355.856 108.38L346.333 93.4445C346.179 93.2046 345.97 93.0042 345.723 92.8594C345.475 92.7147 345.197 92.6298 344.91 92.6116C344.624 92.5934 344.337 92.6425 344.073 92.7549C343.809 92.8673 343.576 93.0397 343.392 93.2582L330.991 108.032C330.771 108.295 330.631 108.613 330.587 108.951C330.543 109.289 330.597 109.632 330.742 109.941C330.888 110.25 331.119 110.512 331.408 110.696C331.698 110.88 332.035 110.979 332.38 110.982L354.305 111.137C354.631 111.139 354.951 111.054 355.233 110.891C355.514 110.728 355.746 110.494 355.905 110.212C356.063 109.93 356.142 109.612 356.134 109.29C356.125 108.967 356.03 108.653 355.856 108.38Z" fill="#29235C"/>
<path d="M429.974 56.4382C429.737 56.4317 429.5 56.4696 429.277 56.55C420.242 59.7085 410.841 61.7303 401.296 62.5677C395.7 63.0931 390.075 63.2404 384.459 63.0087C383.203 62.9279 381.852 62.7789 380.457 62.5615C379.729 62.4125 379 62.2821 378.359 62.1889H378.145C376.292 61.9325 374.419 61.8307 372.548 61.8846C371.825 61.8846 370.494 61.9902 370.519 61.9964H370.299C361.717 62.8626 353.813 66.9934 348.256 73.5157C342.699 80.038 339.925 88.4407 340.521 96.9477V97.1588C340.521 97.3016 340.521 97.4445 340.521 97.5873C340.521 97.7302 340.552 97.8668 340.571 98.0034V98.2146C342.531 115.28 357.898 127.682 376.336 127.067H376.506H376.55C378.389 127.09 380.228 127.015 382.059 126.844C394.925 125.645 406.899 119.671 416.241 109.679C428.592 96.4695 434.931 77.7269 433.203 59.5433C433.123 58.7249 432.744 57.9634 432.137 57.4011C431.53 56.8388 430.737 56.5142 429.905 56.4879" fill="#00B1C4"/>
<path d="M403.626 56.3573C403.38 56.0018 403.012 55.7471 402.59 55.6407C402.168 55.5344 401.721 55.5839 401.333 55.7798C401.227 55.8303 401.133 55.9022 401.057 55.9909C397.53 59.9006 393.52 63.3558 389.12 66.2751C386.55 68.0047 383.863 69.5588 381.079 70.9266C380.451 71.2247 379.728 71.5104 379.031 71.765C378.635 71.8768 378.246 72.0072 377.913 72.1314L377.787 72.1811C376.825 72.5402 375.896 72.9807 375.01 73.4976C374.74 73.6467 374.282 73.9386 374.08 74.0752L373.967 74.1497C370.067 76.8132 367.368 80.8718 366.441 85.4672C365.513 90.0626 366.43 94.8344 368.998 98.7733L369.394 99.3509C371.255 101.925 373.768 103.969 376.682 105.277C379.596 106.585 382.807 107.111 385.992 106.803C389.007 106.525 391.902 105.5 394.41 103.822L394.485 103.773C402.053 98.6788 407.265 90.8245 408.979 81.9344C410.693 73.0443 408.768 63.8453 403.626 56.3573Z" fill="#29235C"/>
<path d="M361.449 93.9856C361.56 95.15 361.318 96.3207 360.756 97.3494C360.193 98.3782 359.334 99.219 358.288 99.7653C357.242 100.312 356.056 100.539 354.879 100.419C353.702 100.298 352.588 99.8354 351.677 99.089C350.766 98.3425 350.1 97.3458 349.762 96.2249C349.425 95.104 349.431 93.9093 349.78 92.7919C350.13 91.6746 350.806 90.6847 351.725 89.9477C352.644 89.2106 353.763 88.7593 354.941 88.651C355.722 88.5783 356.51 88.6584 357.26 88.8869C358.01 89.1153 358.707 89.4876 359.311 89.9824C359.916 90.4772 360.416 91.0849 360.782 91.7707C361.149 92.4565 361.376 93.207 361.449 93.9794" fill="white"/>
<path d="M357.912 94.352C357.983 95.0978 357.829 95.8478 357.469 96.507C357.109 97.1662 356.56 97.7052 355.89 98.0557C355.22 98.4062 354.46 98.5525 353.706 98.4762C352.953 98.3998 352.238 98.1043 351.654 97.6268C351.071 97.1494 350.643 96.5115 350.426 95.7938C350.208 95.0761 350.211 94.3109 350.434 93.5948C350.656 92.8787 351.089 92.244 351.676 91.7708C352.264 91.2976 352.98 91.0072 353.734 90.9364C354.746 90.843 355.754 91.1501 356.538 91.7904C357.321 92.4307 357.815 93.3519 357.912 94.352Z" fill="#29235C"/>
<path d="M346.445 141.004H346.489C344.592 135.942 343.806 130.54 344.184 125.155C344.297 115.07 335.389 113.356 335.389 113.356C335.389 113.356 326.461 111.412 322.504 120.708V120.746C320.789 125.198 318.257 129.024 313.57 134.253C313.23 134.596 312.993 135.026 312.885 135.495C312.106 139.296 320.487 142.854 328.591 144.55C333.755 145.63 338.467 145.928 341.784 145.456C343.022 145.33 344.218 144.947 345.296 144.332C345.632 144.137 345.924 143.876 346.154 143.566C346.384 143.255 346.547 142.901 346.634 142.525C346.739 142.004 346.677 141.464 346.458 140.979" fill="#29235C"/>
<path d="M339.81 114.144C339.878 114.869 339.726 115.598 339.375 116.238C339.024 116.878 338.488 117.401 337.836 117.74C337.184 118.08 336.445 118.22 335.712 118.145C334.98 118.069 334.286 117.78 333.719 117.314C333.153 116.849 332.738 116.228 332.529 115.529C332.319 114.831 332.324 114.087 332.542 113.391C332.76 112.696 333.182 112.08 333.755 111.621C334.327 111.162 335.024 110.882 335.758 110.815C336.245 110.77 336.736 110.821 337.204 110.965C337.671 111.108 338.105 111.341 338.481 111.65C338.858 111.959 339.169 112.338 339.397 112.766C339.625 113.194 339.765 113.662 339.81 114.144Z" fill="#29235C"/>
</g>
</g>
<defs>
<filter id="filter0_d_262_1549" x="33" y="29" width="450" height="318.729" filterUnits="userSpaceOnUse" color-interpolation-filters="sRGB">
<feFlood flood-opacity="0" result="BackgroundImageFix"/>
<feColorMatrix in="SourceAlpha" type="matrix" values="0 0 0 0 0 0 0 0 0 0 0 0 0 0 0 0 0 0 127 0" result="hardAlpha"/>
<feOffset dy="4"/>
<feGaussianBlur stdDeviation="2"/>
<feComposite in2="hardAlpha" operator="out"/>
<feColorMatrix type="matrix" values="0 0 0 0 0 0 0 0 0 0 0 0 0 0 0 0 0 0 0.25 0"/>
<feBlend mode="normal" in2="BackgroundImageFix" result="effect1_dropShadow_262_1549"/>
<feBlend mode="normal" in="SourceGraphic" in2="effect1_dropShadow_262_1549" result="shape"/>
</filter>
<filter id="filter1_d_262_1549" x="201.931" y="103.207" width="214.629" height="153.456" filterUnits="userSpaceOnUse" color-interpolation-filters="sRGB">
<feFlood flood-opacity="0" result="BackgroundImageFix"/>
<feColorMatrix in="SourceAlpha" type="matrix" values="0 0 0 0 0 0 0 0 0 0 0 0 0 0 0 0 0 0 127 0" result="hardAlpha"/>
<feOffset dy="4"/>
<feGaussianBlur stdDeviation="2"/>
<feComposite in2="hardAlpha" operator="out"/>
<feColorMatrix type="matrix" values="0 0 0 0 0 0 0 0 0 0 0 0 0 0 0 0 0 0 0.25 0"/>
<feBlend mode="normal" in2="BackgroundImageFix" result="effect1_dropShadow_262_1549"/>
<feBlend mode="normal" in="SourceGraphic" in2="effect1_dropShadow_262_1549" result="shape"/>
</filter>
<filter id="filter2_d_262_1549" x="310.835" y="55.5859" width="124.648" height="98.7153" filterUnits="userSpaceOnUse" color-interpolation-filters="sRGB">
<feFlood flood-opacity="0" result="BackgroundImageFix"/>
<feColorMatrix in="SourceAlpha" type="matrix" values="0 0 0 0 0 0 0 0 0 0 0 0 0 0 0 0 0 0 127 0" result="hardAlpha"/>
<feOffset dy="2"/>
<feGaussianBlur stdDeviation="1"/>
<feComposite in2="hardAlpha" operator="out"/>
<feColorMatrix type="matrix" values="0 0 0 0 0 0 0 0 0 0 0 0 0 0 0 0 0 0 0.1 0"/>
<feBlend mode="normal" in2="BackgroundImageFix" result="effect1_dropShadow_262_1549"/>
<feBlend mode="normal" in="SourceGraphic" in2="effect1_dropShadow_262_1549" result="shape"/>
</filter>
<clipPath id="clip0_262_1549">
<rect width="479" height="187" fill="white"/>
</clipPath>
</defs>
</svg>
