<svg version="1.2" xmlns="http://www.w3.org/2000/svg" viewBox="0 -0.25144242116641635 1000 612.2514424211664" width="1000" height="613">
	<title>LB4B-POS-RGB-Logo_AW</title>
	<style>
		.s0 { fill: #00c1d5 } 
		.s1 { fill: #29235c } 
		.s2 { fill: #ffffff } 
	</style>
	<g id="Layer 1">
		<g id="&lt;Group&gt;">
			<g id="&lt;Group&gt;">
				<g id="&lt;Group&gt;">
					<path id="&lt;Compound Path&gt;" class="s0" d="m0 123.2h32.8v129.1c0 13.4 4.8 18.5 14.5 18.5 5.4 0 10.5-1.3 12.6-2.1v27.4c-2.6 1.1-10.7 3.2-21.7 3.2-21.5 0-38.2-11-38.2-40z"/>
					<path id="&lt;Compound Path&gt;" class="s0" d="m99.2 104.2c11.3 0 19.1 7.3 19.1 18.5 0 11.1-7.8 18.3-19.1 18.3-11.6 0-19.1-7.2-19.1-18.3 0-11.2 7.5-18.5 19.1-18.5zm16.4 57.2v134.4h-32.8v-134.4z"/>
					<path id="&lt;Compound Path&gt;" class="s0" d="m149.2 161.4v-26.3l31.7-14v40.3h38.2v26.1h-38.2v61.6c0 16.6 8.6 22.3 18.6 22.3 8.3 0 17.5-2.7 24.2-5.7v27.4c-6.2 3.3-17.8 6.2-32.3 6.2-20.4 0-40.8-9.9-42.4-38.9 0-4.3-0.3-8.9-0.3-13.5v-59.4h-15.1v-26.1z"/>
					<path id="&lt;Compound Path&gt;" class="s0" d="m247.1 161.4v-26.3l31.7-14v40.3h38.1v26.1h-38.1v61.6c0 16.6 8.6 22.3 18.5 22.3 8.4 0 17.5-2.7 24.2-5.7v27.4c-6.2 3.3-17.7 6.2-32.2 6.2-20.5 0-40.9-9.9-42.5-38.9 0-4.3-0.3-8.9-0.3-13.5v-59.4h-15.1v-26.1z"/>
					<path id="&lt;Compound Path&gt;" class="s0" d="m339.5 123.2h32.8v129.1c0 13.4 4.9 18.5 14.5 18.5 5.4 0 10.5-1.3 12.7-2.1v27.4c-2.7 1.1-10.8 3.2-21.8 3.2-21.5 0-38.2-11-38.2-40z"/>
					<path id="&lt;Compound Path&gt;" class="s0" d="m535 220.8c0 6.2-0.8 12.1-0.8 14.6h-93.8c0.8 22.5 16.9 36 41.6 36 18.8 0 38.5-5.7 47.6-11.3v28.7c-9.4 5.2-27.4 10.5-50 10.5-44.6 0-73.4-29.3-73.4-70.7 0-40.5 29.3-70.7 67.2-70.7 40.3 0 61.6 29.6 61.6 62.9zm-62.1-36.5c-19.4 0-30.9 15-32.5 32h62.9c0.2-17-10.3-32-30.4-32z"/>
				</g>
				<g id="&lt;Group&gt;">
					<g id="&lt;Group&gt;">
						<path id="&lt;Compound Path&gt;" class="s1" d="m107.9 339.5h32.8v45.8c0 7.2-0.8 11-0.8 11h0.5c7.3-11.6 23.7-22 44.4-22 34.4 0 61.8 27.4 61.8 70.6 0 42.8-27.4 70.7-62.4 70.7-20.9 0-39.2-12.6-45.7-26.8h-0.5c-0.3 0 1.1 3.7 0.5 9.4l-0.5 13.9h-30.1zm33.6 105.4c0 29.1 19.1 42.8 37.1 42.8 21.8 0 36.8-17.8 36.8-42.8 0-25.2-15-42.7-36.8-42.7-18 0-37.1 13.7-37.1 42.7z"/>
					</g>
				</g>
				<g id="&lt;Group&gt;">
					<g id="&lt;Group&gt;">
						<path id="&lt;Compound Path&gt;" class="s1" d="m332.8 377.7h30.1c0.3 5.4 0.6 10.8 0.6 15.9 0 4.6-0.3 8.3 0 9.4 8.3-16.4 22.3-28.7 40.8-28.7 4.1 0 7.6 0.5 8.4 0.8v31.7c-0.8 0-3.8-1.1-8.1-1.1-23.1 0-39 23.4-39 48.7v57.7h-32.8z"/>
					</g>
				</g>
				<g id="&lt;Group&gt;">
					<g id="&lt;Group&gt;">
						<path id="&lt;Compound Path&gt;" class="s1" d="m556.1 512.1h-30.1l-0.5-13.9c-0.3-5.7 0.5-9.4 0.5-9.4h-0.5c-6.5 14.2-24.8 26.8-45.4 26.8-35.3 0-62.7-27.9-62.7-70.7 0-43.2 27.4-70.6 61.8-70.6 20.7 0 37.1 10.4 44.4 22h0.5c0 0-0.8-3.8-0.8-11v-45.8h32.8zm-107.5-67.2c0 25 15.1 42.8 36.8 42.8 18 0 37.1-13.7 37.1-42.8 0-29-19.1-42.7-37.1-42.7-21.7 0-36.8 17.5-36.8 42.7z"/>
					</g>
				</g>
				<g id="&lt;Group&gt;">
					<path id="&lt;Path&gt;" class="s0" d="m603.8 320.5c11.2 0 19 7.3 19 18.5 0 11.1-7.8 18.3-19 18.3-11.6 0-19.1-7.2-19.1-18.3 0-11.2 7.5-18.5 19.1-18.5z"/>
				</g>
				<g id="&lt;Group&gt;">
					<path id="&lt;Path&gt;" class="s1" d="m620.2 377.7v134.4h-32.8v-134.4z"/>
				</g>
				<g id="&lt;Group&gt;">
					<g id="&lt;Group&gt;">
						<path id="&lt;Compound Path&gt;" class="s1" d="m774 437.1c0 6.2-0.8 12.1-0.8 14.6h-93.8c0.8 22.5 17 36 41.7 36 18.8 0 38.4-5.7 47.6-11.3v28.8c-9.4 5.1-27.4 10.4-50 10.4-44.6 0-73.4-29.3-73.4-70.7 0-40.5 29.3-70.6 67.2-70.6 40.3 0 61.5 29.5 61.5 62.8zm-62-36.5c-19.4 0-31 15-32.6 32h62.9c0.3-17-10.2-32-30.3-32z"/>
					</g>
				</g>
				<g id="&lt;Group&gt;">
					<g id="&lt;Group&gt;">
						<path id="&lt;Compound Path&gt;" class="s1" d="m283.9 320.5c11.3 0 19.1 7.3 19.1 18.5 0 11.1-7.8 18.3-19.1 18.3-11.6 0-19.1-7.2-19.1-18.3 0-11.2 7.5-18.5 19.1-18.5zm16.4 57.2v134.4h-32.8v-134.4z"/>
					</g>
				</g>
				<g id="&lt;Group&gt;">
					<g id="&lt;Group&gt;">
						<g id="&lt;Group&gt;">
							<path id="&lt;Path&gt;" class="s1" d="m710.2 199.1l-35.6-56.4c-1.1-1.8-3.1-3-5.2-3.1-2.2-0.2-4.3 0.7-5.7 2.4l-46.3 55.8c-1.7 2-2 4.8-0.9 7.2 1.1 2.3 3.5 3.9 6.1 3.9l81.8 0.6c2.5 0 4.8-1.3 6-3.5 1.2-2.2 1.1-4.8-0.2-6.9z"/>
						</g>
						<path id="&lt;Path&gt;" class="s0" d="m986.6 0.1q-1.3-0.1-2.5 0.4c-30.9 11.3-67 19.1-104.4 22.6-21.3 2-42.5 2.6-62.8 1.7-4.7-0.3-9.8-0.9-15-1.7-2.7-0.6-5.4-1.1-7.8-1.4q-0.4-0.1-0.8-0.1c-6.9-1-13.9-1.4-20.9-1.2-2.7 0-7.6 0.4-7.5 0.4l-0.9 0.1c-66.2 6.4-116 65.6-111 131.9v0.8q0.1 0.8 0.1 1.6 0.1 0.8 0.2 1.6l0.1 0.8c7.3 64.4 64.6 111.2 133.4 108.9 0.1-0.1 0.5-0.1 0.7-0.1h0.1q10.4 0.1 20.6-0.8c48-4.6 92.6-27.1 127.5-64.8 46.1-49.9 69.7-120.6 63.3-189.2-0.6-6.4-5.9-11.3-12.4-11.5z"/>
						<g id="&lt;Group&gt;">
							<path id="&lt;Path&gt;" class="s1" d="m888.4 2.7c-1.9-2.8-5.6-3.7-8.6-2.2q-0.6 0.3-1 0.8c-12 13.7-27.4 27.1-44.6 38.8-9.7 6.6-19.9 12.5-30 17.5-2.4 1.2-5 2.3-7.6 3.2-1.5 0.4-2.9 0.9-4.2 1.4q-0.2 0.1-0.4 0.2c-3.6 1.3-7.1 3-10.4 4.9v0.1c-1 0.5-2.7 1.6-3.5 2.1l-0.4 0.3c-30.2 20.6-38.5 62.3-18.6 92.9l1.5 2.2c14.4 20.3 38.5 30.4 61.9 28.1 11-1 21.8-4.7 31.4-11.2 0.1 0 0.3-0.2 0.3-0.2 58.8-39.9 74.1-120.2 34.2-178.9z"/>
						</g>
						<path id="&lt;Path&gt;" class="s2" d="m731 144.7c1.2 12.3-7.8 23.2-20.1 24.3-12.2 1.2-23.1-7.8-24.3-20.1-1.1-12.2 7.9-23.1 20.1-24.3 12.3-1.1 23.2 7.9 24.3 20.1z"/>
						<g id="&lt;Group&gt;">
							<path id="&lt;Path&gt;" class="s1" d="m717.7 146.1c0.7 7.9-5 14.9-12.9 15.6-7.9 0.8-14.8-5-15.6-12.9-0.7-7.8 5.1-14.8 12.9-15.6 7.9-0.7 14.9 5.1 15.6 12.9z"/>
						</g>
					</g>
				</g>
				<g id="&lt;Group&gt;">
					<path id="&lt;Compound Path&gt;" class="s1" d="m675.1 322.2h0.1c-8.3-23.2-9.5-40.6-8.6-59.8 0.5-38.1-32.7-44.5-32.8-44.6-0.4 0-33.3-7.3-48.1 27.8v0.1c-6.4 16.8-15.9 31.3-33.4 51h0.1c-1.6 1.7-2.3 3.5-2.6 4.8-2.9 14.3 28.4 27.8 58.7 34.2 19.3 4 36.8 5.1 49.1 3.4 5.6-0.8 10.1-2.2 13.1-4.3 3.5-2.2 4.7-4.9 5-6.8 0.4-2 0.2-3.9-0.6-5.8z"/>
					<path id="&lt;Path&gt;" class="s1" d="m650.3 220.8c0.7 7.7-4.9 14.4-12.5 15.1-7.7 0.7-14.5-4.9-15.2-12.5-0.7-7.7 5-14.4 12.6-15.1 7.6-0.8 14.4 4.9 15.1 12.5z"/>
				</g>
			</g>
			<g id="&lt;Group&gt;">
				<path id="&lt;Compound Path&gt;" class="s0" d="m265 565.3v-4c0-10.4 6.6-17.2 18.8-17.2 2.8 0 5.1 0.4 5.9 0.6v11.5c-0.7-0.3-2.4-0.7-4.6-0.7-4.6 0-7.6 2.6-7.6 7.3v2.5h10.6v10.7h-10.1v34.7h-13.5v-34.7h-6v-10.7z"/>
				<path id="&lt;Compound Path&gt;" class="s0" d="m340.6 588c0 13.8-10.3 24-24.2 24-14 0-24.2-10.2-24.2-24 0-13.8 10.2-23.9 24.2-23.9 13.9 0 24.2 10.1 24.2 23.9zm-12.8 0c0-7.5-5-12.5-11.4-12.5-6.5 0-11.4 5-11.4 12.5 0 7.6 4.9 12.6 11.4 12.6 6.4 0 11.4-5 11.4-12.6z"/>
				<path id="&lt;Compound Path&gt;" class="s0" d="m349.5 565.3h12.3l0.3 4.5c0 1.4 0 2.4 0.1 3 2.8-4.9 7.5-8.7 13.4-8.7 1.5 0 2.8 0.2 2.9 0.2v13.3c-0.1-0.1-1.2-0.5-3-0.5-6.9 0-12.5 6-12.5 14.3v19.3h-13.5z"/>
				<path id="&lt;Compound Path&gt;" class="s0" d="m409.7 545.4h13.6v21.6c0 2.5-0.3 3.7-0.3 3.7h0.2c2.4-3.5 7.5-6.6 14.2-6.6 11.4 0 20.8 9 20.8 23.9 0 14.9-9.4 24-21.1 24-6.7 0-12.7-3.9-14.8-8.4h-0.2c0 0 0.4 1.1 0.2 3l-0.3 4.1h-12.3zm14 42.7c0 8.3 5.4 12.5 10.9 12.5 6.3 0 10.8-5.1 10.8-12.5 0-7.5-4.5-12.5-10.8-12.5-5.5 0-10.9 4.1-10.9 12.5z"/>
				<path id="&lt;Compound Path&gt;" class="s0" d="m498 610.7l-0.4-5.1c0-1.7 0.2-2.8 0.4-3.2h-0.2c-1.9 4.2-7.9 9.6-15.4 9.6-10.3 0-15.8-6.3-15.8-18.2v-28.5h13.6v26.2c0 4.5 1.3 8.2 6.2 8.2 6.2 0 10.4-4.9 10.4-11.8v-22.6h13.5v45.4z"/>
				<path id="&lt;Compound Path&gt;" class="s0" d="m534.6 592.7c-8.4-2.4-14.4-5.9-14.4-14.7 0-8.5 6.7-13.9 17.2-13.9 6.5 0 12 1.6 14.7 2.8v11.6c-3-1.5-7.5-3-11.5-3.3-1.5-0.1-2.9-0.1-4.2 0.1-1.9 0.4-3.8 1.3-3.8 3.3 0 2.3 2.3 3.4 7.1 4.9 10.3 2.9 15.2 6.5 15.2 14.7 0 8.7-7.1 13.8-18.7 13.8-6.9 0-12.1-1.5-15.4-3v-11.9c4.3 2.3 10.8 4.2 15.2 4.2 3.4 0 6.5-0.9 6.5-3.6 0-2.5-2.7-3.5-7.9-5z"/>
				<path id="&lt;Compound Path&gt;" class="s0" d="m570.9 545c4.6 0 7.5 2.8 7.5 7.4 0 4.3-2.9 7.2-7.5 7.2-4.6 0-7.5-2.9-7.5-7.2 0-4.6 2.9-7.4 7.5-7.4zm6.8 20.3v45.4h-13.6v-45.4z"/>
				<path id="&lt;Compound Path&gt;" class="s0" d="m602.9 565.3l0.3 5.2c0.1 1.7-0.2 2.7-0.3 3.2h0.1c2-4.2 7.9-9.6 15.7-9.6 10.2 0 15.8 6.2 15.8 18.2v28.4h-13.7v-26.1c0-4.5-1.2-8.2-6.1-8.2-6.4 0-10.7 4.9-10.7 11.7v22.6h-13.6v-45.4z"/>
				<path id="&lt;Compound Path&gt;" class="s0" d="m686.9 585.3c0 2.5-0.2 4.6-0.3 5.5h-29.8c0.5 6.2 5.3 9.8 12.6 9.8 6.4 0 13.2-1.9 15.7-3.4v11.5c-2.8 1.5-8.9 3.3-17 3.3-15.6 0-25.4-10.1-25.4-24 0-13.8 10.1-23.9 23.1-23.9 14 0 21.1 10 21.1 21.2zm-21.2-10.5c-5.5 0-8.5 4.2-8.9 9.1h17.1c0.2-4.9-2.7-9.1-8.2-9.1z"/>
				<path id="&lt;Compound Path&gt;" class="s0" d="m707.5 592.7c-8.4-2.4-14.4-5.9-14.4-14.7 0-8.5 6.7-13.9 17.3-13.9 6.5 0 11.9 1.6 14.7 2.8v11.6c-3-1.5-7.6-3-11.6-3.3-1.4-0.1-2.9-0.1-4.1 0.1-1.9 0.4-3.9 1.3-3.9 3.3 0 2.3 2.3 3.4 7.1 4.9 10.4 2.9 15.3 6.5 15.3 14.7 0 8.7-7.2 13.8-18.7 13.8-6.9 0-12.2-1.5-15.5-3v-11.9c4.3 2.3 10.8 4.2 15.3 4.2 3.4 0 6.4-0.9 6.4-3.6 0-2.5-2.7-3.5-7.9-5z"/>
				<path id="&lt;Compound Path&gt;" class="s0" d="m748.5 592.7c-8.5-2.4-14.4-5.9-14.4-14.7 0-8.5 6.7-13.9 17.2-13.9 6.5 0 12 1.6 14.7 2.8v11.6c-3-1.5-7.5-3-11.5-3.3-1.5-0.1-2.9-0.1-4.2 0.1-1.9 0.4-3.8 1.3-3.8 3.3 0 2.3 2.3 3.4 7.1 4.9 10.3 2.9 15.2 6.5 15.2 14.7 0 8.7-7.2 13.8-18.7 13.8-6.9 0-12.1-1.5-15.4-3v-11.9c4.3 2.3 10.8 4.2 15.2 4.2 3.4 0 6.5-0.9 6.5-3.6 0-2.5-2.7-3.5-7.9-5z"/>
			</g>
		</g>
	</g>
</svg>