<svg width="48" height="51" viewBox="0 0 48 51" fill="none" xmlns="http://www.w3.org/2000/svg">
<path d="M21.3624 34.3354C25.1085 34.3354 28.1453 31.3506 28.1453 27.6687C28.1453 23.9868 25.1085 21.0021 21.3624 21.0021C17.6163 21.0021 14.5794 23.9868 14.5794 27.6687C14.5794 31.3506 17.6163 34.3354 21.3624 34.3354Z" stroke="white" stroke-width="2" stroke-linejoin="round"/>
<path d="M10.6046 18.6286C11.9904 17.2659 13.6358 16.1851 15.4467 15.4476C17.2577 14.7101 19.1987 14.3306 21.1589 14.3306C23.1191 14.3306 25.0601 14.7101 26.8711 15.4476C28.682 16.1851 30.3274 17.2659 31.7132 18.6286" stroke="white" stroke-width="2" stroke-linejoin="round"/>
<path d="M5.81592 13.9087C9.88606 9.91092 15.4047 7.66534 21.1589 7.66534C26.913 7.66534 32.4318 9.91092 36.502 13.9087" stroke="white" stroke-width="2" stroke-linejoin="round"/>
<path d="M1 9.20215C3.64543 6.60181 6.78603 4.53898 10.2426 3.13167C13.6991 1.72436 17.4039 1 21.1453 1C24.8867 1 28.5915 1.72436 32.048 3.13167C35.5046 4.53898 38.6452 6.60181 41.2906 9.20215" stroke="white" stroke-width="2" stroke-linejoin="round"/>
<path d="M10.6046 18.6286C11.9904 17.2659 13.6358 16.1851 15.4467 15.4476C17.2577 14.7101 19.1987 14.3306 21.1589 14.3306C23.1191 14.3306 25.0601 14.7101 26.8711 15.4476C28.682 16.1851 30.3274 17.2659 31.7132 18.6286" stroke="white" stroke-width="2" stroke-linejoin="round"/>
<path d="M5.81592 13.9087C9.88606 9.91092 15.4047 7.66534 21.1589 7.66534C26.913 7.66534 32.4318 9.91092 36.502 13.9087" stroke="white" stroke-width="2" stroke-linejoin="round"/>
<path d="M1 9.20215C3.64543 6.60181 6.78603 4.53898 10.2426 3.13167C13.6991 1.72436 17.4039 1 21.1453 1C24.8867 1 28.5915 1.72436 32.048 3.13167C35.5046 4.53898 38.6452 6.60181 41.2906 9.20215" stroke="white" stroke-width="2" stroke-linejoin="round"/>
<path d="M32.2151 37.002V49.002L37.6414 43.6687" stroke="white" stroke-width="2" stroke-linejoin="round"/>
<path d="M32.2151 49.002L26.7887 43.6687" stroke="white" stroke-width="2" stroke-linejoin="round"/>
<path d="M41.7112 39.6687V27.6687L36.2848 33.002" stroke="white" stroke-width="2" stroke-linejoin="round"/>
<path d="M41.7112 27.6687L47.1376 33.002" stroke="white" stroke-width="2" stroke-linejoin="round"/>
</svg>
