<svg width="46" height="51" viewBox="0 0 46 51" fill="none" xmlns="http://www.w3.org/2000/svg">
<path d="M28.1111 37.7778V32.7408C29.9604 31.5831 31.5041 30.0089 32.6149 28.1479C33.7257 26.2869 34.3718 24.1925 34.5 22.0371C34.5 19.0313 33.2884 16.1486 31.1317 14.0232C28.9751 11.8978 26.05 10.7037 23 10.7037C19.95 10.7037 17.0249 11.8978 14.8683 14.0232C12.7116 16.1486 11.5 19.0313 11.5 22.0371C11.6282 24.1925 12.2743 26.2869 13.3851 28.1479C14.4959 30.0089 16.0396 31.5831 17.8889 32.7408V37.7778" stroke="white" stroke-width="2" stroke-miterlimit="10"/>
<path d="M23 37.7778V27.7037" stroke="white" stroke-width="2" stroke-miterlimit="10"/>
<path d="M20.4445 26.4445H25.5556" stroke="white" stroke-width="2" stroke-miterlimit="10"/>
<path d="M16.6111 41.5555H29.3889" stroke="white" stroke-width="2" stroke-miterlimit="10"/>
<path d="M16.6111 45.3333H29.3889" stroke="white" stroke-width="2" stroke-miterlimit="10"/>
<path d="M17.8889 49.1111H28.1111" stroke="white" stroke-width="2" stroke-miterlimit="10"/>
<path d="M7.39835 38.0422L12.8161 32.7029" stroke="white" stroke-width="2" stroke-miterlimit="10"/>
<path d="M34.5 11.3333L39.9178 5.99408" stroke="white" stroke-width="2" stroke-miterlimit="10"/>
<path d="M23 7.55556V0" stroke="white" stroke-width="2" stroke-miterlimit="10"/>
<path d="M0 21.4074H7.66667" stroke="white" stroke-width="2" stroke-miterlimit="10"/>
<path d="M38.3333 21.4074H46" stroke="white" stroke-width="2" stroke-miterlimit="10"/>
<path d="M38.6016 38.0422L33.1838 32.7029" stroke="white" stroke-width="2" stroke-miterlimit="10"/>
<path d="M11.4999 11.3333L6.08215 5.99408" stroke="white" stroke-width="2" stroke-miterlimit="10"/>
</svg>
