<svg width="55" height="51" viewBox="0 0 55 51" fill="none" xmlns="http://www.w3.org/2000/svg">
<g clip-path="url(#clip0_3306_8397)">
<path d="M32.3005 47.4938C31.7169 47.3969 31.1485 47.2217 30.6117 46.9732C26.2068 45.2233 21.4916 44.3911 16.7538 44.5272C15.5495 44.5981 14.3448 44.3878 13.2357 43.9131C12.1267 43.4384 11.1435 42.7124 10.3633 41.7922C9.80945 41.0286 9.47441 40.1284 9.39417 39.1885C9.31393 38.2486 9.49108 37.3044 9.9075 36.458C10.7926 34.4507 12.33 32.8012 14.2697 31.7764C16.4722 30.5997 18.1657 28.6551 19.0291 26.312C21.2859 20.5295 25.9195 20.0493 28.1507 20.505C30.4377 20.785 34.6166 22.8824 34.7215 29.0818C34.7186 31.5783 35.6411 33.9873 37.3108 35.8433C38.7778 37.4713 39.6529 39.5464 39.7945 41.7332C39.901 42.6686 39.7487 43.6154 39.3536 44.4701C38.9586 45.3247 38.336 46.0543 37.5545 46.5792C35.9771 47.5253 34.1047 47.8513 32.3005 47.4938ZM27.5316 22.6826C26.7403 22.5429 22.9755 22.1627 21.0791 27.0941C20.053 29.8697 18.0606 32.1823 15.467 33.6072C13.9089 34.3998 12.6648 35.6964 11.9373 37.286C11.6725 37.7852 11.55 38.3476 11.5834 38.9116C11.6168 39.4757 11.8048 40.0197 12.1268 40.4841C12.6782 41.1071 13.3627 41.5985 14.1292 41.9221C14.8958 42.2456 15.725 42.3931 16.5561 42.3537C21.6857 42.1724 26.7956 43.0743 31.5532 45.0008C32.3201 45.3159 33.1472 45.4576 33.9752 45.4157C34.8033 45.3738 35.6122 45.1494 36.3433 44.7584C36.8047 44.4323 37.1676 43.9855 37.3921 43.467C37.6167 42.9485 37.694 42.3781 37.6161 41.8185C37.4721 40.077 36.7477 38.4343 35.5591 37.1535C33.614 34.9262 32.5375 32.0719 32.5276 29.1149C32.427 23.3118 28.0234 22.7694 27.8436 22.7376L27.5316 22.6826Z" fill="white"/>
<path d="M34.445 21.1215C33.926 21.0297 33.4225 20.866 32.9488 20.6349C32.1129 20.2091 31.3863 19.5958 30.8266 18.8429C30.2668 18.0901 29.8891 17.2182 29.722 16.295C29.3479 14.2889 29.6308 12.2157 30.5289 10.3832C31.4269 8.55079 32.8915 7.05679 34.7062 6.12335C35.5384 5.68952 36.4601 5.45409 37.3984 5.43528C38.3367 5.41647 39.2666 5.61487 40.1155 6.015C43.4164 7.62367 44.4948 12.2271 42.523 16.2552C41.6457 18.0861 40.1779 19.5687 38.3558 20.4643C37.1542 21.0909 35.7853 21.321 34.445 21.1215ZM38.2379 7.68619C37.3667 7.56555 36.4795 7.71053 35.6921 8.10217C34.3173 8.8157 33.205 9.94782 32.5157 11.3349C31.8265 12.7221 31.596 14.2924 31.8577 15.819C31.9403 16.4243 32.1706 17 32.5281 17.4954C32.8857 17.9908 33.3598 18.3906 33.9083 18.6596C34.4568 18.9286 35.0634 19.0587 35.674 19.0382C36.2846 19.0177 36.8808 18.8473 37.41 18.542C38.7935 17.8413 39.9008 16.6958 40.5548 15.2897C42.002 12.3434 41.3692 9.06712 39.1521 7.97117C38.8551 7.85618 38.5439 7.7805 38.2273 7.74614L38.2379 7.68619Z" fill="white"/>
<path d="M42.0751 34.4838C41.3596 34.3592 40.6751 34.0956 40.0608 33.708C39.2774 33.1958 38.6232 32.5099 38.1481 31.7036C37.6729 30.8972 37.3898 29.992 37.3214 29.0586C37.1646 27.0243 37.6662 24.9935 38.7524 23.2663C39.8386 21.5392 41.4521 20.2073 43.3536 19.4675C44.2261 19.126 45.1652 18.9905 46.0986 19.0716C47.032 19.1527 47.9344 19.4483 48.7348 19.9352C51.8503 21.8943 52.4437 26.5853 50.0438 30.377C49.2606 31.7639 48.0893 32.8917 46.6735 33.6214C45.2576 34.351 43.6591 34.6508 42.0751 34.4838ZM46.3279 21.3152C45.5708 21.1981 44.7962 21.274 44.0762 21.5358C42.6438 22.1157 41.4299 23.1314 40.6067 24.4393C39.7835 25.7471 39.3928 27.2808 39.4895 28.8232C39.5293 29.4284 39.7062 30.0166 40.0074 30.5431C40.3086 31.0697 40.726 31.5207 41.2275 31.8619C43.3205 33.1708 46.4462 31.9919 48.198 29.2106C49.9498 26.4294 49.659 23.1022 47.566 21.7933C47.1886 21.5543 46.7681 21.3919 46.3279 21.3152Z" fill="white"/>
<path d="M20.6934 19.2629C19.3725 19.0241 18.1597 18.3777 17.2248 17.4145C15.829 15.9449 14.9628 14.0522 14.7627 12.0352C14.313 7.57977 16.8782 3.61941 20.5431 3.16609C21.4773 3.08633 22.4176 3.22091 23.2919 3.55946C24.1662 3.898 24.9517 4.43163 25.5885 5.11971C26.9669 6.62183 27.8271 8.52631 28.0433 10.5536C28.2595 12.5808 27.8199 14.624 26.7892 16.3831C26.3163 17.1932 25.6628 17.8832 24.8792 18.3989C24.0955 18.9146 23.2029 19.2422 22.2717 19.356C21.7438 19.3987 21.2126 19.3673 20.6934 19.2629ZM21.7415 5.34312C21.4251 5.28822 21.1023 5.27698 20.7828 5.30987C18.3245 5.58058 16.6083 8.44228 16.9594 11.7059C17.093 13.2478 17.7421 14.6994 18.8029 15.8264C19.1852 16.3086 19.6834 16.6865 20.2508 16.9248C20.8182 17.1631 21.4367 17.2542 22.0487 17.1896C22.6607 17.1249 23.2461 16.9066 23.7511 16.5551C24.2562 16.2035 24.6644 15.73 24.9375 15.1786C25.706 13.8337 26.0271 12.2794 25.8543 10.7401C25.6816 9.20088 25.0241 7.75637 23.9766 6.61531C23.3814 5.9698 22.6005 5.52528 21.7415 5.34312Z" fill="white"/>
<path d="M10.0205 30.0746C8.90136 29.8617 7.85638 29.362 6.98803 28.6246C5.45778 27.2786 4.39958 25.4777 3.968 23.4859C3.53642 21.4942 3.75415 19.4165 4.59001 17.5578C4.9579 16.6904 5.52856 15.9238 6.25394 15.3224C6.97932 14.7211 7.83827 14.3024 8.75887 14.1016C9.67948 13.9009 10.6349 13.9238 11.5448 14.1685C12.4547 14.4133 13.2926 14.8727 13.9883 15.5082C15.5451 16.8301 16.6111 18.6384 17.0136 20.6407C17.9584 25.0228 15.807 29.2293 12.209 30.0035C11.4913 30.1697 10.7476 30.1938 10.0205 30.0746ZM10.559 16.238C10.1192 16.1593 9.66849 16.168 9.23203 16.2633C8.64212 16.408 8.09353 16.6873 7.62969 17.0794C7.16584 17.4715 6.79895 17.9657 6.55816 18.5233C5.933 19.9364 5.77265 21.5115 6.09915 23.0218C6.42564 24.5321 7.22265 25.9 8.37566 26.9287C8.82596 27.3353 9.36297 27.6336 9.94621 27.8008C10.5294 27.9681 11.1433 27.9997 11.7407 27.8935C14.1574 27.3682 15.5595 24.3275 14.8636 21.1266C14.5645 19.6076 13.7676 18.2317 12.5991 17.2161C12.0122 16.7236 11.3105 16.3872 10.559 16.238Z" fill="white"/>
</g>
<defs>
<clipPath id="clip0_3306_8397">
<rect width="48.0369" height="42.3884" fill="white" transform="translate(7.36792) rotate(10.0099)"/>
</clipPath>
</defs>
</svg>
