<svg width="44" height="44" viewBox="0 0 44 44" fill="none" xmlns="http://www.w3.org/2000/svg">
<path d="M22 43C33.598 43 43 33.598 43 22C43 10.402 33.598 1 22 1C10.402 1 1 10.402 1 22C1 33.598 10.402 43 22 43Z" stroke="white" stroke-width="2" stroke-miterlimit="10"/>
<path d="M29 1.99997V6.99997C29 8.06084 28.5785 9.07832 27.8284 9.82846C27.0782 10.5786 26.0609 11 25 11H24C23.4696 11 22.9608 11.2107 22.5857 11.5858C22.2106 11.9609 22 12.4695 22 13V14C22 14.7956 21.6839 15.5587 21.1213 16.1213C20.5587 16.6839 19.7956 17 19 17V17C18.4696 17 17.9608 17.2107 17.5857 17.5858C17.2106 17.9609 17 18.4695 17 19C17 20.3261 17.5267 21.5978 18.4644 22.5355C19.402 23.4732 20.6739 24 22 24H27C27.5304 24 28.039 24.2107 28.4141 24.5858C28.7891 24.9609 29 25.4695 29 26V30C29 30.5304 29.2106 31.0391 29.5857 31.4142C29.9608 31.7892 30.4696 32 31 32H32C32.5304 32 33.039 32.2107 33.4141 32.5858C33.7891 32.9609 34 33.4695 34 34V39" stroke="white" stroke-width="2" stroke-miterlimit="10"/>
<path d="M20 43V38C20 37.4695 19.7891 36.9609 19.4141 36.5858C19.039 36.2107 18.5304 36 18 36C17.2044 36 16.4413 35.6839 15.8787 35.1213C15.3161 34.5587 15 33.7956 15 33C15 32.2043 14.6839 31.4412 14.1213 30.8786C13.5587 30.316 12.7956 30 12 30H8C7.46957 30 6.96077 29.7892 6.58569 29.4142C6.21062 29.0391 6 28.5304 6 28V25C6 23.9391 5.57851 22.9217 4.82837 22.1716C4.07822 21.4215 3.06087 21 2 21H1" stroke="white" stroke-width="2" stroke-linejoin="round"/>
<path d="M43 22H40C39.4696 22 38.9608 22.2107 38.5857 22.5858C38.2106 22.9609 38 23.4695 38 24V26H36C35.7348 26 35.4805 26.1054 35.293 26.2929C35.1054 26.4805 35 26.7348 35 27V28C35 28.7956 35.3161 29.5587 35.8787 30.1213C36.4413 30.6839 37.2044 31 38 31V36" stroke="white" stroke-width="2" stroke-linejoin="round"/>
</svg>
