<svg width="98" height="79" viewBox="0 0 98 79" fill="none" xmlns="http://www.w3.org/2000/svg">
<ellipse cx="4.47808" cy="4.47134" rx="4.47808" ry="4.47134" transform="matrix(-1 0 0 1 90.6377 69.8965)" fill="#EC2F86"/>
<path d="M81.4191 47.4877L81.2257 46.7153C81.1978 46.604 81.151 46.4983 81.0873 46.4029L80.4854 45.5014C80.2999 45.2235 79.9879 45.0566 79.6538 45.0566H77.8271C77.0835 45.0566 76.5184 45.8806 76.599 46.6199C76.6962 47.5109 76.6682 48.6972 76.3217 50.0958C76.2542 50.368 76.0598 50.5841 75.8387 50.7566C73.0875 52.904 72.5984 62.6037 72.7105 67.8523C72.7179 68.1979 72.5465 68.519 72.277 68.7354C70.8786 69.8583 69.492 71.9404 72.725 73.3751C76.2654 74.9462 87.8723 72.7651 93.4271 71.4349C93.5589 71.4034 93.6782 71.3466 93.786 71.2645C95.8013 69.7287 99.1528 66.6965 97.6032 65.9229C95.613 64.9293 91.1349 55.9866 88.6471 51.5152C87.0386 48.6243 84.4551 48.1347 82.7353 48.3155C82.1563 48.3763 81.5605 48.0524 81.4191 47.4877Z" fill="#29215B"/>
<path d="M46.354 7.29891C61.878 6.90146 69.4078 14.7511 71.2322 18.7257C73.2225 18.7257 87.6519 60.955 46.354 60.955C6.89665 60.955 -0.914635 21.0442 0.0804977 2.33078C1.57319 2.16517 6.25031 2.43014 13.0172 4.81485C21.4758 7.79574 26.949 7.79573 46.354 7.29891Z" fill="#E83285"/>
<path d="M80.7765 47.1218L72.0586 47.4845C71.3952 47.5121 70.8896 46.8973 71.0448 46.2516L73.2242 37.1841C73.4219 36.3616 74.4881 36.1409 74.9961 36.8173L81.5345 45.5221C82.0182 46.166 81.5812 47.0883 80.7765 47.1218Z" fill="#29215B"/>
<path d="M28.4415 38.5978C52.3246 52.5086 55.6417 33.464 54.3149 22.2029C53.9832 20.05 51.6281 15.5456 44.8612 14.7507C38.0943 13.9558 29.7684 5.14558 26.4513 0.839844C20.3147 7.62965 12.1214 24.687 28.4415 38.5978Z" fill="#29225C"/>
<ellipse cx="5.47321" cy="4.96815" rx="5.47321" ry="4.96815" transform="matrix(-1 0 0 1 69.7393 28.1641)" fill="white"/>
<ellipse cx="3.48295" cy="2.98089" rx="3.48295" ry="2.98089" transform="matrix(-1 0 0 1 68.7441 30.1523)" fill="#29225C"/>
<rect width="0.995132" height="1.98726" transform="matrix(-1 0 0 1 64.7637 30.1523)" fill="white"/>
</svg>
