<svg width="28" height="28" viewBox="0 0 28 28" fill="none" xmlns="http://www.w3.org/2000/svg">
<path d="M10.3625 10.25C10.6564 9.41458 11.2364 8.71013 11.9999 8.26142C12.7634 7.8127 13.6611 7.64867 14.534 7.79839C15.4068 7.94811 16.1985 8.40191 16.7688 9.07941C17.3392 9.75691 17.6513 10.6144 17.65 11.5C17.65 14 13.9 15.25 13.9 15.25M14 20.25H14.0125M26.5 14C26.5 20.9036 20.9036 26.5 14 26.5C7.09644 26.5 1.5 20.9036 1.5 14C1.5 7.09644 7.09644 1.5 14 1.5C20.9036 1.5 26.5 7.09644 26.5 14Z" stroke="#00B1C4" stroke-width="2" stroke-linecap="round" stroke-linejoin="round"/>
</svg>
